<svg xmlns="http://www.w3.org/2000/svg" viewBox="0 0 32 32" fill="none">
  <!-- vibration waves (bottom) -->
  <path d="M10 26a8 3 0 0 0 12 0" stroke="currentColor" stroke-width="1.8" stroke-linecap="round" opacity="0.45"/>
  <path d="M6 28a12 4 0 0 0 20 0" stroke="currentColor" stroke-width="1.8" stroke-linecap="round" opacity="0.7"/>
  <path d="M2 30a16 5 0 0 0 28 0" stroke="currentColor" stroke-width="1.8" stroke-linecap="round"/>

  <!-- spike / shaft -->
  <path d="M14.5 8L17.5 8L17 26L16 28L15 26Z" fill="currentColor"/>
  <path d="M15 26L16 28L16 8L15 8Z" fill="currentColor" opacity="0.5"/>

  <!-- collar rings -->
  <rect x="13.5" y="12" width="5" height="2" rx="0.7" fill="currentColor"/>
  <rect x="14" y="20" width="4" height="1.5" rx="0.5" fill="currentColor" opacity="0.55"/>

  <!-- actuator head -->
  <rect x="13" y="3" width="6" height="6" rx="1" fill="none" stroke="currentColor" stroke-width="1.8"/>
  <rect x="14" y="4" width="3.5" height="3.5" rx="0.5" fill="currentColor"/>

  <!-- piston cap -->
  <path d="M12 1 L20 1 L19 3 L13 3 Z" fill="currentColor"/>

  <!-- side crank arm + wheel -->
  <path d="M18 5 L22 6 L21 9 L18 8 Z" fill="currentColor" opacity="0.55"/>
  <circle cx="22" cy="7.5" r="1.8" fill="none" stroke="currentColor" stroke-width="1.5"/>
  <circle cx="22" cy="7.5" r="0.8" fill="currentColor"/>
</svg>
